<svg width="30" height="30" xmlns="http://www.w3.org/2000/svg">

 <g>
  <title>background</title>
  <rect fill="none" id="canvas_background" height="32" width="32" y="-1" x="-1"/>
 </g>
 <g>
  <title>Layer 1</title>
  <path fill="#ffffff" id="svg_1" d="m7,4c-0.25587,0 -0.51203,0.09747 -0.70703,0.29297l-2,2c-0.391,0.391 -0.391,1.02406 0,1.41406l7.29297,7.29297l-7.29297,7.29297c-0.391,0.391 -0.391,1.02406 0,1.41406l2,2c0.391,0.391 1.02406,0.391 1.41406,0l7.29297,-7.29297l7.29297,7.29297c0.39,0.391 1.02406,0.391 1.41406,0l2,-2c0.391,-0.391 0.391,-1.02406 0,-1.41406l-7.29297,-7.29297l7.29297,-7.29297c0.391,-0.39 0.391,-1.02406 0,-1.41406l-2,-2c-0.391,-0.391 -1.02406,-0.391 -1.41406,0l-7.29297,7.29297l-7.29297,-7.29297c-0.1955,-0.1955 -0.45116,-0.29297 -0.70703,-0.29297z"/>
 </g>
</svg>